<mxfile host="app.diagrams.net" modified="2020-06-29T03:33:29.780Z" agent="5.0 (X11; Linux x86_64) AppleWebKit/537.36 (KHTML, like Gecko) Chrome/78.0.3904.97 Safari/537.36" etag="Sf9o7qc8yetFqC97nqYl" version="13.3.5" type="github">
  <diagram id="I0tTbIVz2taehSvC3SyJ" name="Page-1">
    <mxGraphModel dx="1372" dy="833" grid="1" gridSize="10" guides="1" tooltips="1" connect="1" arrows="1" fold="1" page="1" pageScale="1" pageWidth="827" pageHeight="1169" math="0" shadow="0">
      <root>
        <mxCell id="0" />
        <mxCell id="1" parent="0" />
        <mxCell id="eCIu5ebLq8_7URlHtB98-1" value="消息管理" style="rounded=0;whiteSpace=wrap;html=1;" vertex="1" parent="1">
          <mxGeometry x="360" y="480" width="120" height="60" as="geometry" />
        </mxCell>
        <mxCell id="eCIu5ebLq8_7URlHtB98-2" value="send" style="rounded=0;whiteSpace=wrap;html=1;" vertex="1" parent="1">
          <mxGeometry x="240" y="480" width="120" height="30" as="geometry" />
        </mxCell>
        <mxCell id="eCIu5ebLq8_7URlHtB98-24" style="edgeStyle=orthogonalEdgeStyle;rounded=0;orthogonalLoop=1;jettySize=auto;html=1;exitX=0;exitY=0.5;exitDx=0;exitDy=0;entryX=1;entryY=0.75;entryDx=0;entryDy=0;" edge="1" parent="1" source="eCIu5ebLq8_7URlHtB98-3" target="eCIu5ebLq8_7URlHtB98-17">
          <mxGeometry relative="1" as="geometry" />
        </mxCell>
        <mxCell id="eCIu5ebLq8_7URlHtB98-3" value="recv" style="rounded=0;whiteSpace=wrap;html=1;" vertex="1" parent="1">
          <mxGeometry x="240" y="510" width="120" height="30" as="geometry" />
        </mxCell>
        <mxCell id="eCIu5ebLq8_7URlHtB98-14" style="edgeStyle=orthogonalEdgeStyle;rounded=0;orthogonalLoop=1;jettySize=auto;html=1;exitX=0.5;exitY=1;exitDx=0;exitDy=0;" edge="1" parent="1" source="eCIu5ebLq8_7URlHtB98-4" target="eCIu5ebLq8_7URlHtB98-11">
          <mxGeometry relative="1" as="geometry" />
        </mxCell>
        <mxCell id="eCIu5ebLq8_7URlHtB98-4" value="更新管理" style="rounded=0;whiteSpace=wrap;html=1;" vertex="1" parent="1">
          <mxGeometry x="80" y="240" width="120" height="60" as="geometry" />
        </mxCell>
        <mxCell id="eCIu5ebLq8_7URlHtB98-5" value="资源下载" style="rounded=0;whiteSpace=wrap;html=1;" vertex="1" parent="1">
          <mxGeometry x="200" y="240" width="120" height="20" as="geometry" />
        </mxCell>
        <mxCell id="eCIu5ebLq8_7URlHtB98-7" value="版本检验" style="rounded=0;whiteSpace=wrap;html=1;" vertex="1" parent="1">
          <mxGeometry x="200" y="260" width="120" height="20" as="geometry" />
        </mxCell>
        <mxCell id="eCIu5ebLq8_7URlHtB98-8" value="内容更新" style="rounded=0;whiteSpace=wrap;html=1;" vertex="1" parent="1">
          <mxGeometry x="200" y="280" width="120" height="20" as="geometry" />
        </mxCell>
        <mxCell id="eCIu5ebLq8_7URlHtB98-16" style="edgeStyle=orthogonalEdgeStyle;rounded=0;orthogonalLoop=1;jettySize=auto;html=1;exitX=0.5;exitY=1;exitDx=0;exitDy=0;entryX=0.5;entryY=0;entryDx=0;entryDy=0;" edge="1" parent="1" source="eCIu5ebLq8_7URlHtB98-11" target="eCIu5ebLq8_7URlHtB98-15">
          <mxGeometry relative="1" as="geometry" />
        </mxCell>
        <mxCell id="eCIu5ebLq8_7URlHtB98-11" value="流程" style="rounded=1;whiteSpace=wrap;html=1;" vertex="1" parent="1">
          <mxGeometry x="80" y="320" width="120" height="60" as="geometry" />
        </mxCell>
        <mxCell id="eCIu5ebLq8_7URlHtB98-18" style="edgeStyle=orthogonalEdgeStyle;rounded=0;orthogonalLoop=1;jettySize=auto;html=1;exitX=0.5;exitY=1;exitDx=0;exitDy=0;entryX=0.5;entryY=0;entryDx=0;entryDy=0;" edge="1" parent="1" source="eCIu5ebLq8_7URlHtB98-15" target="eCIu5ebLq8_7URlHtB98-17">
          <mxGeometry relative="1" as="geometry" />
        </mxCell>
        <mxCell id="eCIu5ebLq8_7URlHtB98-15" value="程序启动时自检&lt;br&gt;定时自检" style="rounded=1;whiteSpace=wrap;html=1;" vertex="1" parent="1">
          <mxGeometry x="80" y="400" width="120" height="60" as="geometry" />
        </mxCell>
        <mxCell id="eCIu5ebLq8_7URlHtB98-21" style="edgeStyle=orthogonalEdgeStyle;rounded=0;orthogonalLoop=1;jettySize=auto;html=1;exitX=0.5;exitY=1;exitDx=0;exitDy=0;entryX=0.5;entryY=0;entryDx=0;entryDy=0;" edge="1" parent="1" source="eCIu5ebLq8_7URlHtB98-17" target="eCIu5ebLq8_7URlHtB98-19">
          <mxGeometry relative="1" as="geometry" />
        </mxCell>
        <mxCell id="eCIu5ebLq8_7URlHtB98-23" style="edgeStyle=orthogonalEdgeStyle;rounded=0;orthogonalLoop=1;jettySize=auto;html=1;exitX=1;exitY=0.25;exitDx=0;exitDy=0;" edge="1" parent="1" source="eCIu5ebLq8_7URlHtB98-17" target="eCIu5ebLq8_7URlHtB98-2">
          <mxGeometry relative="1" as="geometry" />
        </mxCell>
        <mxCell id="eCIu5ebLq8_7URlHtB98-17" value="上报自检状态给服务器，并等待应答" style="rounded=1;whiteSpace=wrap;html=1;" vertex="1" parent="1">
          <mxGeometry x="80" y="480" width="120" height="60" as="geometry" />
        </mxCell>
        <mxCell id="eCIu5ebLq8_7URlHtB98-19" value="需更新" style="rhombus;whiteSpace=wrap;html=1;" vertex="1" parent="1">
          <mxGeometry x="100" y="560" width="80" height="50" as="geometry" />
        </mxCell>
        <mxCell id="eCIu5ebLq8_7URlHtB98-20" style="edgeStyle=orthogonalEdgeStyle;rounded=0;orthogonalLoop=1;jettySize=auto;html=1;exitX=0.5;exitY=1;exitDx=0;exitDy=0;" edge="1" parent="1" source="eCIu5ebLq8_7URlHtB98-19" target="eCIu5ebLq8_7URlHtB98-19">
          <mxGeometry relative="1" as="geometry" />
        </mxCell>
      </root>
    </mxGraphModel>
  </diagram>
</mxfile>
